<?xml version="1.0"?>
<svg version="1.1" xmlns="http://www.w3.org/2000/svg" width="200" height="40" style=""><path fill="#1687d9" d="M30.84,30.47q2.91,0.09,3.075,0.09l0.195,0q0.72-0.06,0.72,0.21q0,0.42-1.17,0.42l-2.55-0.06q-0.78,0.06-0.93,0.15q-1.26,1.56-3.39,4.515t-2.13,3.525q0,0.24,0.54-0.12q0.33,0,0.33,0.09q0,0.15-0.66,0.45l-0.84,0.45q-0.57,0.48-1.305,0.48t-0.675-0.36q0.03-0.72,2.13-3.645t4.35-5.565q-2.16,0.39-3.3,0.39q-0.12-0.03-0.12-0.195t0.36-0.465t0.765-0.3t1.305-0.03l1.53,0q1.02-1.38,4.53-6.36q1.44-2.07,1.44-3.42q0-2.1-3.12-2.1q-2.43,0-5.715,1.35t-6.045,3.69q-1.95,1.62-3.09,3.51t-1.14,3.36q0,2.37,2.82,2.37q0.24,0,0.51-0.03q1.83-0.15,3.465-2.085t1.635-3.255q0-0.12-0.03-0.27q0.78,0.15,0.78,0.93q0,1.29-1.68,3.03q-2.28,2.37-5.28,2.37q-1.65,0-2.58-0.87t-0.93-2.37q0-3.54,4.32-7.14q3.12-2.55,6.63-3.855t6.105-1.305t3.87,0.75t1.275,2.085t-1.17,3.015q-0.69,1.11-4.83,6.57z M41.4051,38.15q-2.25,0-2.25-2.49q0-1.26,0.66-2.76t1.44-2.52q-0.15,0.03-0.39,0.03q-0.72,0-1.2-1.02l-2.22,2.88q-1.86,2.31-2.16,2.31q-0.15,0-0.15-0.12q0-0.3,0.51-0.87q2.61-3.03,3.69-5.13q0.69-2.61,1.74-2.61q0.69,0,0.69,0.6t-0.75,1.53l-0.72,0.96q0,0.63,0.93,0.63q0.54,0,1.2-0.39l0.78-0.48q0.06-0.03,0.3-0.03t0.51,0.3t0.18,0.54l-2.07,2.61q-1.92,2.46-1.92,3.885t1.32,1.425q1.38,0,3.39-1.47q1.2-0.87,2.19-1.95q0.93-1.08,1.02-1.08q0.21,0,0.21,0.225t-0.27,0.525l-0.96,1.08q-0.81,0.84-1.8,1.62q-2.37,1.77-3.9,1.77z M58.3902,29.03l0.42-0.09q0.33,0,0.63,0.27t0.3,0.42t-1.86,2.895t-1.86,3.825q0,0.09,0.03,0.18q0.15,0.69,0.66,0.69q1.56,0,5.7-5.16q0.09-0.12,0.21-0.12t0.12,0.225t-0.27,0.585q-3.84,5.13-5.85,5.13q-0.27,0-0.51-0.09q-1.32-0.51-1.32-1.98q0-0.51,0.12-1.02l-1.86,1.8q-1.77,1.56-2.565,1.56t-1.515-0.51q-0.81-0.6-0.81-1.59q0-2.19,3.06-5.235t5.61-3.045q0.99,0,1.32,0.69q0.09,0.24,0.15,0.405t0.09,0.165z M49.4202,36.41q0,1.08,0.75,1.08q1.74,0,4.74-3.81l3.18-4.38q-0.24-0.42-0.78-0.42q-1.83,0-4.86,2.835t-3.03,4.695z M64.1253,36.77q-1.2,0.84-1.71,0.84q-0.69,0-0.69-0.75q0-0.27,0.18-0.66t0.36-0.39q0.27,0,0.12,0.45q-0.09,0.45,0.27,0.45t0.87-0.36l-1.14-0.87q-0.06-0.06-0.06-0.21t0.3-0.435t0.465-0.285t1.455,1.02q3.72-4.2,5.46-5.52q-2.37-0.72-3.51-0.72q-0.33,0-0.63,0.045t-0.645,0.36t-0.345,0.705t0.33,0.645t0.33,0.405t-0.225,0.15t-0.735-0.6q-0.48-0.6-0.48-1.23q0-1.05,1.53-1.38q0.81-0.15,1.65-0.15t4.14,1.08q0.42-0.24,0.9-0.24q1.26,0,1.26,0.75q0,0.3-0.39,0.555t-0.93,0.255t-0.99-0.21q-2.85,1.77-6.12,5.58l1.08,0.84q1.29,0.84,3,0.84t2.52-0.54t0.81-1.38q0-0.39-0.15-0.735t0.27-0.345q0.15,0,0.3,0.345t0.15,0.825q0,1.2-1.14,1.98t-2.94,0.78q-1.98,0-3.27-0.75q-0.51-0.27-1.65-1.14z M110.6655,29.42l2.91-0.06q1.08,0,1.08,0.15q0,0.39-4.38,0.69q-2.79,5.46-2.79,7.44q0,1.38,0.87,1.38q0.33,0,0.825-0.405t0.6-0.405t0.105,0.15q-0.15,0.54-0.915,0.9t-1.29,0.36t-0.825-0.06q-0.72-0.27-0.72-1.74q0-3.03,2.31-7.71l-3.6,0.09q-4.02,3.93-8.07,6.9q-6.06,4.41-9.48,4.41q-0.21,0-0.42-0.03q-4.62-0.39-4.62-4.74q0-2.58,1.62-5.46q2.16-3.84,5.91-6.555t6.72-2.715t2.97,2.19q0,1.47-0.9,3.27t-1.83,2.28q-0.09,0.03-0.195,0.03t-0.105-0.06l0.99-1.62q1.02-1.59,1.02-2.79t-0.525-1.935t-1.665-0.735q-2.34,0-5.595,2.61t-4.95,6.42t-1.695,5.94q0,3.21,3.27,3.21q3.12,0,8.46-4.02q2.37-1.77,7.71-6.69q-1.05,0.06-1.95,0.21q-1.92,0.36-1.8-0.12q0.12-1.11,1.14-1.11q1.98,0.24,3.33,0.24q2.58-2.37,7.71-7.77q3.45-3.63,4.2-3.63q0.33,0,0.33,0.51t-0.27,1.59t-0.6,1.32q-0.69,0.48-1.29,1.305t-1.71,3.09t-1.89,3.675z M113.0655,22.1l-7.68,7.2l1.77,0q0.63,0.03,1.56,0.03q0.87-1.71,4.35-7.23z M121.3206,37.88q-1.77,0-1.77-2.07q0-1.17,0.825-2.595t2.025-3.345q-3.84,1.92-6.96,5.67q-1.74,2.61-2.04,2.61q-0.87,0-0.87-0.51q0-0.27,0.36-0.96q2.91-5.19,4.41-7.59q3.57-5.73,5.04-6.21q0.06-0.03,0.12-0.03q0.39,0,0.54,0.63q-0.09,0.63-3.12,4.56q-3.15,3.99-3.57,5.22q1.11-0.81,3.87-2.73q2.97-2.07,3.93-2.07t0.96,0.75q0,0.12-0.015,0.165t-2.085,2.835t-2.07,4.11q0,0.69,0.51,0.69q1.62-0.06,4.86-3.9q0.27-0.27,0.405-0.27t0.135,0.18q0,0.6-2.97,3.24q-1.86,1.62-2.52,1.62z M141.1557,37.64q-2.04,0-2.04-1.89q0-1.08,0.96-2.955t2.01-3.165q-1.86,0.9-4.29,3.255t-3.39,4.935q-0.15,0.24-0.51,0.24q-0.72,0-0.72-0.81q0.3-1.65,1.35-3.78q0.33-0.69,1.95-4.02q-2.34,1.53-3.975,3.285t-3.03,3.525t-1.575,1.77q-0.39,0-0.675-0.36t-0.285-0.72q0-0.54,1.56-3.96l-1.8,1.89q-0.66,0.66-0.825,0.66t-0.165-0.195t0.24-0.435q1.11-1.11,1.98-2.22t2.88-3.96q0.33-0.45,0.93-0.45t0.6,0.57q0,0.21-1.59,2.925t-1.77,3.405q1.23-1.35,3.69-3.63q3.69-3.42,4.86-3.42q0.36,0,0.66,0.21t0.3,0.465t-1.17,2.265q-1.14,2.07-1.26,2.46q3.33-2.79,3.33-2.82q2.82-2.19,4.05-2.19q0.36,0,0.675,0.225t0.315,0.525q0,0.06-1.95,2.535t-2.19,4.065q-0.06,0.54,0.21,0.81t0.975,0.27t2.07-0.975t2.775-2.625q0.54-0.6,0.735-0.6t0.195,0.15q0,0.21-0.27,0.48q-1.47,1.77-3.165,3.015t-2.655,1.245z M148.6008,38.39q-0.33,0-0.6-0.09q-1.92-0.54-1.92-2.16q0-2.1,2.64-4.86t4.74-2.76q0.69,0,1.125,0.375t0.435,0.915q0,1.68-2.535,3.21t-4.125,1.53q-0.24,0-0.42-0.06q-0.45,0.81-0.45,1.71q0,1.56,1.485,1.56t3.855-2.01q1.83-1.47,3.12-3.12q0.27-0.36,0.465-0.36t0.195,0.18t-0.24,0.51q-1.62,2.13-3.9,3.78t-3.87,1.65z M154.2708,29.75q0-0.36-0.765-0.36t-2.175,1.17q-1.89,1.56-2.94,3.27q0.18,0.06,0.39,0.06q1.14,0,3.045-1.215t2.385-2.655q0.06-0.15,0.06-0.27z M165.9459,28.91q3.36-5.46,4.68-5.46q0.21,0,0.585,0.135t0.375,0.405q0,0.15-0.15,0.39q-2.4,2.94-3.57,4.41q-3.54,4.47-3.9,6.42q-0.09,0.42-0.09,0.84q0,1.35,1.11,1.35q2.22,0,5.79-4.11q0.3-0.3,0.51-0.345t0.21,0.105t-0.18,0.36q-3.48,4.17-6.18,4.65q-0.15,0.03-0.42,0.03q-0.93,0-1.395-0.645t-0.465-1.395q0-0.84,0.33-1.86l-2.43,2.43q-1.65,1.53-2.595,1.53t-1.575-0.51q-0.75-0.57-0.75-1.59q0-2.19,3.06-5.235t5.61-3.045q0.84,0,1.17,0.45q0.12,0.15,0.27,0.69z M157.0959,36.41q0,1.08,0.75,1.08q1.29,0,4.29-3.54q0.54-0.63,3.6-4.71q-0.21-0.36-0.72-0.36q-1.86,0-4.89,2.835t-3.03,4.695z"/><path fill="#" d=""/></svg>
